Coordinates
version=1
nRows=19
nColumns=36
inDegrees=yes

Units are S.I. units (second, meters, Newtons, ...)
If the header above contains a line with 'inDegrees', this indicates whether rotational values are in degrees (yes) or radians (no).

endheader
time	pelvis_tilt	pelvis_list	pelvis_rotation	pelvis_tx	pelvis_ty	pelvis_tz	hip_flexion_r	hip_adduction_r	hip_rotation_r	knee_angle_r	knee_angle_r_beta	ankle_angle_r	subtalar_angle_r	mtp_angle_r	hip_flexion_l	hip_adduction_l	hip_rotation_l	knee_angle_l	knee_angle_l_beta	ankle_angle_l	subtalar_angle_l	mtp_angle_l	lumbar_extension	lumbar_bending	lumbar_rotation	arm_flex_r	arm_add_r	arm_rot_r	elbow_flex_r	pro_sup_r	arm_flex_l	arm_add_l	arm_rot_l	elbow_flex_l	pro_sup_l
      1.88333330	      0.25392791	      1.33393216	     -1.72922399	     -0.08434515	      1.32296253	     -0.09818952	     -3.16868837	      0.29216925	     -1.08804798	      5.55262011	      0.09691150	     11.44903338	     -9.21371558	     -7.49999987	     -5.73441163	     -1.00912847	     -2.83434996	      1.06894717	      0.01865665	     14.80561721	      4.00928661	     -7.49999987	     -3.93381214	      1.30416907	     -0.64375644	      0.29075636	     -5.09185369	      2.10730500	     24.70240632	     86.71719580	      1.06332951	     -3.99396857	     -1.44060611	     23.42332862	     87.52176710
      1.90000000	      0.26317484	      1.29439290	     -1.74662961	     -0.08415568	      1.32223053	     -0.09823328	     -3.14093148	      0.33300951	     -1.13825634	      5.72731988	      0.09996059	     11.31215216	     -9.68730782	     -7.49999987	     -5.73650152	     -1.02996007	     -2.87037966	      1.05049635	      0.01833462	     15.03590009	      4.26132200	     -7.49999987	     -4.06501785	      1.31599525	     -0.58237840	      0.47600978	     -5.30976997	      4.00025044	     24.63683224	     82.58845849	      1.15724231	     -4.13892202	      0.30300326	     23.49921533	     83.31158120
      1.91666670	      0.12953327	      1.25319281	     -1.77176086	     -0.08371377	      1.32456298	     -0.09833915	     -2.92713877	      0.38915413	     -1.12937801	      5.82223171	      0.10161711	     11.33223016	     -9.82442645	     -7.49999987	     -5.60250465	     -1.06163494	     -2.71144805	      0.99866930	      0.01743007	     15.00313982	      4.00918539	     -7.49999987	     -4.05588279	      1.33088046	     -0.43346464	      0.49123979	     -5.14119624	      2.42997881	     24.67646209	     86.57487663	      1.18124209	     -3.96685319	     -1.16682633	     23.70139751	     87.72692507
      1.93333330	      0.08436046	      1.23437253	     -1.68796193	     -0.08402872	      1.32291601	     -0.09835963	     -2.87776205	      0.41558428	     -1.22380899	      5.80684233	      0.10134852	     11.20568219	     -9.97236427	     -7.49999987	     -5.53966165	     -1.08020994	     -2.55972573	      0.98057265	      0.01711422	     15.01006231	      3.86510667	     -7.49999987	     -4.09583295	      1.32252092	     -0.40507792	      0.60169307	     -5.14551733	      2.62340793	     24.67031371	     86.31779184	      1.29101895	     -3.99973231	     -0.90324918	     23.78382387	     87.80409272
      1.95000000	     -0.00111316	      1.26130396	     -1.58297388	     -0.08295209	      1.32179438	     -0.09912996	     -2.76919706	      0.41683403	     -1.22960302	      5.75735835	      0.10048486	     11.26337148	     -9.86316700	     -7.49999987	     -5.49008606	     -1.05685465	     -2.51661842	      0.97761111	      0.01706253	     15.01923677	      3.74057405	     -7.49999987	     -4.08254576	      1.28031815	     -0.41386094	      0.65336111	     -5.12600615	      2.58405200	     24.75363227	     86.61271983	      1.32479751	     -4.00721962	     -0.88017007	     23.84963645	     88.15306605
      1.96666670	     -0.13377759	      1.30835165	     -1.53395172	     -0.08604868	      1.32009902	     -0.09957881	     -2.55107704	      0.35338011	     -1.20809671	      5.81603720	      0.10150900	     11.36376043	     -9.77677461	     -7.49999987	     -5.36483126	     -1.01288063	     -2.41871000	      1.01060510	      0.01763839	     14.94020482	      3.36784615	     -7.49999987	     -4.01440462	      1.22531396	     -0.26144356	      0.64908431	     -5.12807491	      2.49090832	     24.92166243	     86.61122412	      1.50874318	     -4.04725228	     -0.40053092	     23.91879828	     88.00204540
      1.98333330	     -0.18114419	      1.38315988	     -1.50434764	     -0.08531705	      1.32087238	     -0.09949815	     -2.46005708	      0.25084538	     -1.17891572	      5.77946235	      0.10087065	     11.37216231	     -9.68109342	     -7.49999987	     -5.34012385	     -0.93948220	     -2.50610573	      1.00278813	      0.01750195	     14.83225549	      3.23464430	     -7.49999987	     -4.00580005	      1.13095389	     -0.22479549	      0.82712794	     -5.45336378	      5.49707908	     25.00731912	     79.60118409	      1.63545812	     -4.38106355	      2.58765679	     23.97436400	     80.80116479
      2.00000000	     -0.36635811	      1.46322452	     -1.42721748	     -0.08390961	      1.32291437	     -0.09981582	     -2.20689179	      0.16161663	     -1.16311808	      5.69974138	      0.09947925	     11.38428772	     -9.39713637	     -7.49999987	     -5.15720332	     -0.87221962	     -2.43891399	      0.99508264	      0.01736747	     14.55888624	      2.83898170	     -7.49999987	     -3.83237738	      1.06042799	     -0.11804331	      0.68998620	     -5.10370111	      2.48743942	     25.35516280	     86.72935426	      1.60115999	     -4.08865644	     -0.00966268	     24.13915803	     88.05693811
      2.01666670	     -0.42387821	      1.52114658	     -1.33438949	     -0.08217582	      1.32163048	     -0.09992586	     -2.14517600	      0.10009778	     -1.10990122	      5.57443873	      0.09729231	     11.44918174	     -9.08518783	     -7.49999987	     -5.12475063	     -0.81657641	     -2.44016494	      0.97756710	      0.01706176	     14.38605376	      2.67333121	     -7.49999987	     -3.75119458	      1.02454986	     -0.11929260	      0.65554533	     -5.07934228	      2.49870891	     25.60533848	     86.66543753	      1.50226944	     -4.06175379	     -0.10011368	     24.33071195	     88.25301453
      2.03333330	     -0.65646310	      1.55915836	     -1.27366060	     -0.08331138	      1.31684921	     -0.09966053	     -1.83301681	      0.08524392	     -0.98508011	      5.55141007	      0.09689038	     11.63018017	     -8.90177274	     -7.49999987	     -4.87805193	     -0.77798203	     -2.36089753	      0.95644188	      0.01669306	     14.48647187	      2.61426565	     -7.49999987	     -3.47280655	      0.99373313	     -0.11736770	      0.52908454	     -5.05451581	      2.51058831	     26.04415630	     86.27030419	      1.28664348	     -4.07210650	     -0.09057772	     24.71952986	     87.83566723
      2.05000000	     -0.64568905	      1.60111613	     -1.22702246	     -0.08335474	      1.31704067	     -0.10027867	     -1.79097455	      0.08539071	     -0.70160785	      5.38372679	      0.09396376	     11.81216839	     -8.69876238	     -7.49999987	     -4.85929520	     -0.75244320	     -2.50596940	      0.89000712	      0.01553355	     14.42758234	      2.64633376	     -7.49999987	     -3.51381852	      0.95845844	      0.01558446	      0.61881423	     -5.04638478	      2.56951127	     26.12610251	     86.69537823	      1.46586591	     -4.10251155	      0.38264829	     24.53104994	     88.15285945
      2.06666670	     -0.62675238	      1.64063720	     -1.17805558	     -0.08150537	      1.31781832	     -0.10048109	     -1.89643681	      0.03641341	     -0.64390008	      5.23100658	      0.09129829	     11.94629944	     -8.50333200	     -7.49999987	     -4.83987759	     -0.72517541	     -2.47557946	      0.82238101	      0.01435326	     14.47569139	      2.80801006	     -7.49999987	     -3.50512364	      0.94490261	     -0.09972083	      0.67544673	     -5.03646735	      2.75333166	     26.28980609	     86.74545153	      1.32888934	     -4.07490759	      0.19884645	     24.65792790	     88.34384284
      2.08333330	     -0.64333146	      1.64899552	     -1.16391653	     -0.08024241	      1.32197107	     -0.10066245	     -1.92154656	      0.04783871	     -0.57355506	      5.10596593	      0.08911592	     11.99332442	     -8.39330436	     -7.49999987	     -4.80273191	     -0.72614679	     -2.48876888	      0.75147965	      0.01311579	     14.50176562	      2.94696376	     -7.49999987	     -3.43894062	      0.95791016	     -0.04575382	      0.61013037	     -5.00414578	      2.63319427	     26.46430459	     86.79164557	      1.29937133	     -4.08114912	      0.50361187	     24.62112437	     88.23538119
      2.10000000	     -0.64302689	      1.65974386	     -1.14233283	     -0.08006254	      1.32386746	     -0.10026152	     -2.01329434	      0.06466806	     -0.47176315	      4.84358212	      0.08453646	     11.93265200	     -8.30228148	     -7.49999987	     -4.78893117	     -0.71726995	     -2.39500745	      0.68374568	      0.01193361	     14.42838027	      3.05035596	     -7.49999987	     -3.38279632	      0.95226475	     -0.12705314	      0.65625027	     -4.98192687	      2.84842469	     26.58733405	     86.88583427	      1.19955994	     -4.10313701	      0.54664564	     24.64724845	     88.16256703
      2.11666670	     -0.67013659	      1.70247567	     -1.07944704	     -0.08189973	      1.32070414	     -0.10093754	     -2.04737873	      0.00428210	     -0.48947958	      4.69688817	      0.08197616	     11.65923247	     -8.43008656	     -7.49999987	     -4.76399339	     -0.67112352	     -2.38141893	      0.66493351	      0.01160528	     14.36111814	      3.04141056	     -7.49999987	     -3.31699999	      0.91050438	     -0.13775675	      0.67208728	     -4.94627747	      2.97646602	     26.67726557	     86.80341759	      1.22582478	     -4.11413870	      0.64244917	     24.64398918	     88.16459177
      2.13333330	     -0.82411358	      1.73665915	     -1.12849779	     -0.08203406	      1.32137022	     -0.10035198	     -1.76353749	     -0.02476442	     -0.37084727	      4.81613572	      0.08405743	     11.78765587	     -8.25229302	     -7.49999987	     -4.38637386	     -0.65531670	     -2.56592821	      1.12082519	      0.01956209	     14.63223386	      3.15325033	     -7.49999987	     -3.29217967	      0.89384566	     -0.17041936	      0.61976201	     -5.29769189	      6.35759525	     27.59005275	     74.32380245	      1.14126616	     -4.49581017	      4.17304168	     25.23523601	     75.14802119
      2.15000000	     -0.52097863	      1.64165730	     -1.09476965	     -0.07890032	      1.31770184	     -0.10040427	     -2.36968528	      0.05759278	     -0.45397604	      4.52937318	      0.07905247	     11.72613441	     -8.13616356	     -7.49999987	     -5.03534480	     -0.73090314	     -2.52625489	      0.65676160	      0.01146265	     14.45426446	      3.34906588	     -7.49999987	     -3.36038827	      1.01991038	     -0.09902502	      0.68295579	     -4.92925327	      3.15892175	     27.00518746	     86.79713709	      1.28984129	     -4.15176617	      1.24463019	     24.54841806	     88.15652605
      2.16666670	     -0.51009911	      1.56313385	     -1.17684464	     -0.07816213	      1.31365007	     -0.10032216	     -2.48227311	      0.14267414	     -0.34352731	      4.69285159	      0.08190571	     11.96839085	     -8.17089950	     -7.49999987	     -5.18005976	     -0.78782048	     -2.60961574	      0.69024123	      0.01204698	     14.72835554	      3.54803872	     -7.49999987	     -3.15236176	      1.11708159	      0.03872302	      0.54502983	     -4.97086254	      3.22917053	     27.19521694	     86.66252576	      1.10189619	     -4.10721080	      1.26903123	     24.53744860	     88.04814393
      2.18333330	     -0.51288759	      1.51852077	     -1.24192062	     -0.08052039	      1.32129872	     -0.10019247	     -2.51525068	      0.16684017	     -0.36065005	      4.72002498	      0.08237998	     12.04135568	     -8.20719616	     -7.49999987	     -5.20148755	     -0.80749266	     -2.54277031	      0.70713735	      0.01234187	     14.73570389	      3.58498972	     -7.49999987	     -3.07494749	      1.16829422	      0.06786097	      0.58204221	     -4.94123714	      3.23967705	     27.21591583	     86.66312822	      1.09901834	     -4.10276961	      1.26854572	     24.54367179	     88.04905142
